HIERARCHY
ROOT Hips
{
	OFFSET	0.000000	0.000000	0.000000
	CHANNELS 6 Xposition Yposition Zposition Zrotation Xrotation Yrotation
	JOINT LeftUpLeg
	{
		OFFSET	12.830505	-7.049846	-1.643436
		CHANNELS 3 Zrotation Xrotation Yrotation
		JOINT LeftLeg
		{
			OFFSET	0.620834	-39.957500	-1.919341
			CHANNELS 3 Zrotation Xrotation Yrotation
			JOINT LeftFoot
			{
				OFFSET	-0.413890	-44.704761	-3.870325
				CHANNELS 3 Zrotation Xrotation Yrotation
				JOINT LeftFootHeel
				{
					OFFSET	0.164738	-8.918193	-6.555130
					CHANNELS 3 Zrotation Xrotation Yrotation
					End Site
					{
						OFFSET	-0.604053	0.000000	21.044330
					}
				}
			}
		}
	}
	JOINT RightUpLeg
	{
		OFFSET	-12.830505	-7.049846	-1.643436
		CHANNELS 3 Zrotation Xrotation Yrotation
		JOINT RightLeg
		{
			OFFSET	-0.620834	-39.957500	-1.919341
			CHANNELS 3 Zrotation Xrotation Yrotation
			JOINT RightFoot
			{
				OFFSET	0.413890	-44.704761	-3.870325
				CHANNELS 3 Zrotation Xrotation Yrotation
				JOINT RightFootHeel
				{
					OFFSET	-0.164738	-8.918193	-6.555130
					CHANNELS 3 Zrotation Xrotation Yrotation
					End Site
					{
						OFFSET	0.604053	0.000000	21.044330
					}
				}
			}
		}
	}
	JOINT Spine
	{
		OFFSET	0.000000	12.498170	1.820647
		CHANNELS 3 Zrotation Xrotation Yrotation
		JOINT Spine1
		{
			OFFSET	0.000000	7.620000	0.000000
			CHANNELS 3 Zrotation Xrotation Yrotation
			JOINT LeftShoulder
			{
				OFFSET	9.167800	29.136339	-5.551221
				CHANNELS 3 Zrotation Xrotation Yrotation
				JOINT LeftArm
				{
					OFFSET	12.133453	-3.880866	1.461963
					CHANNELS 3 Zrotation Xrotation Yrotation
					JOINT LeftForeArm
					{
						OFFSET	2.507115	-31.664908	-1.069404
						CHANNELS 3 Zrotation Xrotation Yrotation
						JOINT LeftHand
						{
							OFFSET	4.116172	-24.512624	5.009439
							CHANNELS 3 Zrotation Xrotation Yrotation
							End Site
							{
								OFFSET	-0.213136	-10.931856	2.182134
							}
						}
					}
				}
			}
			JOINT RightShoulder
			{
				OFFSET	-9.167800	29.136339	-5.551221
				CHANNELS 3 Zrotation Xrotation Yrotation
				JOINT RightArm
				{
					OFFSET	-12.133453	-3.880866	1.461963
					CHANNELS 3 Zrotation Xrotation Yrotation
					JOINT RightForeArm
					{
						OFFSET	-2.507115	-31.664908	-1.069404
						CHANNELS 3 Zrotation Xrotation Yrotation
						JOINT RightHand
						{
							OFFSET	-4.116172	-24.512624	5.009439
							CHANNELS 3 Zrotation Xrotation Yrotation
							End Site
							{
								OFFSET	0.213136	-10.931856	2.182134
							}
						}
					}
				}
			}
			JOINT Neck
			{
				OFFSET	0.000000	32.926272	-3.635654
				CHANNELS 3 Zrotation Xrotation Yrotation
				JOINT Head
				{
					OFFSET	0.000000	12.481178	4.646143
					CHANNELS 3 Zrotation Xrotation Yrotation
					End Site
					{
						OFFSET	0.000000	17.715204	-2.222063
					}
				}
			}
		}
	}
}
MOTION
Frames:     9
Frame Time: 0.016667
0.000000	100.283286	0.000000	-4.074774	2.011054	49.680294	12.739071	-23.937735	13.158251	6.480124	25.686159	-4.651997	-10.856766	-5.384557	-3.589780	0.	0.	0.	-13.301033	-18.394812	-16.799566	-0.405624	22.798111	-1.793100	8.699914	-2.961787	-7.914847	0.	0.	0.	0.000000	-0.000000	-0.000008	-1.994669	21.287466	2.954205	13.622635	-2.125388	7.870684	-7.450072	-22.039650	-4.685951	-113.928452	-28.665161	-86.650139	0.769005	-2.739978	-9.662907	-8.615794	1.793951	3.050340	-31.010098	-24.051655	-34.740646	-44.257507	-119.063873	-51.949230	-9.525752	0.879735	15.570219	-1.630789	4.636631	-17.675730	16.573654	-8.431780	-14.271605	
0.003470	100.283344	0.003905	-4.075057	2.009584	49.666077	12.746457	-23.933882	13.173261	6.480122	25.686165	-4.651991	-10.856766	-5.384559	-3.589772	0.	0.	0.	-13.294953	-18.394327	-16.800581	-0.411493	22.795055	-1.775953	8.699913	-2.961784	-7.914845	0.	0.	0.	0.000000	-0.000000	0.000004	-1.998911	21.287710	2.969496	13.632720	-2.128715	7.861464	-7.464291	-22.053413	-4.680927	-113.931786	-28.669050	-86.644669	0.769009	-2.741211	-9.658484	-8.610935	1.787065	3.044469	-31.009418	-24.050379	-34.748833	-44.279930	-119.072998	-51.973995	-9.535861	0.885742	15.565532	-1.618642	4.636401	-17.684496	16.563307	-8.432873	-14.263065	
0.003470	100.283344	0.003905	-4.075057	2.009584	49.666077	12.746457	-23.933882	13.173261	6.480122	25.686165	-4.651991	-10.856766	-5.384559	-3.589772	0.	0.	0.	-13.294953	-18.394327	-16.800581	-0.411493	22.795055	-1.775953	8.699913	-2.961784	-7.914845	0.	0.	0.	0.000000	-0.000000	0.000004	-1.998911	21.287710	2.969496	13.632720	-2.128715	7.861464	-7.464291	-22.053413	-4.680927	-113.931786	-28.669050	-86.644669	0.769009	-2.741211	-9.658484	-8.610935	1.787065	3.044469	-31.009418	-24.050379	-34.748833	-44.279930	-119.072998	-51.973995	-9.535861	0.885742	15.565532	-1.618642	4.636401	-17.684496	16.563307	-8.432873	-14.263065	
0.007038	100.282685	0.007577	-4.075484	2.007362	49.644600	12.757623	-23.928049	13.195921	6.480124	25.686155	-4.651991	-10.856765	-5.384559	-3.589774	0.	0.	0.	-13.285918	-18.397505	-16.781773	-0.412799	22.794369	-1.772156	8.699915	-2.961785	-7.914848	0.	0.	0.	0.000000	0.000000	-0.000001	-2.005326	21.288073	2.992584	13.647882	-2.133729	7.847583	-7.486227	-22.075150	-4.673764	-113.936020	-28.675432	-86.635452	0.768724	-2.743815	-9.651727	-8.610936	1.787067	3.044464	-31.008038	-24.052298	-34.766888	-44.307125	-119.085373	-52.002640	-9.547291	0.887766	15.575111	-1.623497	4.640923	-17.709530	16.573017	-8.428336	-14.237617	
0.009223	100.282201	0.009777	-4.075768	2.005880	49.630299	12.765050	-23.924164	13.211014	6.480123	25.686165	-4.651995	-10.856767	-5.384555	-3.589777	0.	0.	0.	-13.279915	-18.400066	-16.766912	-0.412796	22.794371	-1.772150	8.699914	-2.961787	-7.914844	0.	0.	0.	0.000000	-0.000000	0.000007	-2.009593	21.288311	3.007966	13.650220	-2.134502	7.845448	-7.495905	-22.091539	-4.680192	-113.939095	-28.682650	-86.630585	0.767628	-2.747716	-9.647366	-8.610935	1.787066	3.044466	-31.017939	-24.048386	-34.771896	-44.301136	-119.084694	-52.006874	-9.548608	0.887527	15.578185	-1.634734	4.628737	-17.737532	16.583445	-8.405699	-14.213936	
0.011384	100.281697	0.011954	-4.076053	2.004418	49.616127	12.772416	-23.920317	13.225968	6.480127	25.686163	-4.651991	-10.856765	-5.384556	-3.589775	0.	0.	0.	-13.273969	-18.402613	-16.752188	-0.412797	22.794371	-1.772150	8.699916	-2.961785	-7.914843	0.	0.	0.	0.000000	-0.000001	-0.000003	-2.013831	21.288542	3.023204	13.650220	-2.134503	7.845451	-7.501643	-22.105846	-4.697353	-113.942589	-28.688150	-86.629906	0.774940	-2.757274	-9.643573	-8.610936	1.787065	3.044467	-31.031670	-24.042953	-34.778851	-44.293289	-119.083176	-52.010002	-9.548271	0.887550	15.575014	-1.652222	4.605664	-17.779728	16.598024	-8.367098	-14.179559	
0.014361	100.281562	0.015249	-4.076331	2.002962	49.602062	12.779719	-23.916492	13.240796	6.480123	25.686157	-4.651996	-10.856766	-5.384558	-3.589779	0.	0.	0.	-13.267983	-18.403147	-16.747837	-0.416604	22.792377	-1.761028	8.699913	-2.961788	-7.914852	0.	0.	0.	0.000000	-0.000001	-0.000004	-2.018031	21.288782	3.038317	13.650217	-2.134506	7.845446	-7.504566	-22.112289	-4.702604	-113.942581	-28.685740	-86.627991	0.780697	-2.762380	-9.641898	-8.610936	1.787062	3.044462	-31.038353	-24.040304	-34.782246	-44.290142	-119.081635	-52.007332	-9.547589	0.887609	15.568636	-1.670227	4.615293	-17.833855	16.626034	-8.354747	-14.124684	
0.018757	100.281329	0.020059	-4.076751	2.000796	49.581123	12.790462	-23.911314	13.259475	6.478778	25.687017	-4.648340	-10.856764	-5.384561	-3.589781	0.	0.	0.	-13.259090	-18.404078	-16.740704	-0.422042	22.789534	-1.745132	8.699913	-2.961786	-7.914844	0.	0.	0.	0.000001	-0.000001	0.000001	-2.024286	21.289124	3.060842	13.650220	-2.134504	7.845446	-7.507833	-22.118649	-4.704792	-113.945618	-28.657337	-86.616844	0.800155	-2.788222	-9.647853	-8.610936	1.787065	3.044464	-31.044924	-24.037706	-34.785568	-44.287083	-119.080063	-52.004566	-9.546907	0.887671	15.562207	-1.682340	4.629567	-17.872801	16.677586	-8.377996	-14.111834	
0.021170	100.280951	0.022591	-4.077032	1.999347	49.567127	12.797042	-23.910109	13.256953	6.471998	25.691305	-4.629893	-10.856767	-5.384558	-3.589777	0.	0.	0.	-13.253187	-18.405920	-16.729582	-0.423312	22.788872	-1.741426	8.699913	-2.961786	-7.914848	0.	0.	0.	0.000000	-0.000000	-0.000005	-2.029892	21.290766	3.066720	13.647473	-2.133690	7.850492	-7.501697	-22.119804	-4.699988	-113.947403	-28.653978	-86.601982	0.796868	-2.802089	-9.662164	-8.609977	1.784149	3.053837	-31.044928	-24.037706	-34.785568	-44.287094	-119.080063	-52.004559	-9.546902	0.887673	15.562207	-1.691006	4.591864	-17.870258	16.704836	-8.365880	-14.144023	
